<svg xmlns="http://www.w3.org/2000/svg" xmlns:xlink="http://www.w3.org/1999/xlink" width="24" height="24" viewBox="0 0 24 24">
  <defs>
    <radialGradient id="bkn_d-a" cy="50.27%" r="48.397%" fx="50%" fy="50.27%">
      <stop offset="0%" stop-color="#FFC227"/>
      <stop offset="100%" stop-color="#FFB300"/>
    </radialGradient>
    <radialGradient id="bkn_d-b" cx="10.956%" cy="64.355%" r="56.514%" fx="10.956%" fy="64.355%">
      <stop offset="0%" stop-color="#E85423"/>
      <stop offset="100%" stop-color="#E85423" stop-opacity="0"/>
    </radialGradient>
    <radialGradient id="bkn_d-d" cx="56.956%" cy="106.356%" r="39.878%" fx="56.956%" fy="106.356%">
      <stop offset="0%" stop-color="#E85423"/>
      <stop offset="100%" stop-color="#E85423" stop-opacity="0"/>
    </radialGradient>
    <circle id="bkn_d-c" cx="16" cy="10" r="4"/>
    <radialGradient id="bkn_d-e" cx="88.2%" cy="11.315%" fx="88.2%" fy="11.315%">
      <stop offset="0%" stop-color="#9699C7"/>
      <stop offset="100%" stop-color="#9499C9" stop-opacity="0"/>
    </radialGradient>
    <radialGradient id="bkn_d-f" cx="8.171%" cy="-6.535%" r="63.588%" fx="8.171%" fy="-6.535%">
      <stop offset="0%" stop-color="#9699C7"/>
      <stop offset="100%" stop-color="#9499C9" stop-opacity="0"/>
    </radialGradient>
    <linearGradient id="bkn_d-g" x1="50%" x2="50%" y1="0%" y2="100%">
      <stop offset="0%" stop-color="#A4C5F4"/>
      <stop offset="100%" stop-color="#A7C7F2"/>
    </linearGradient>
    <radialGradient id="bkn_d-h" cx="88.2%" cy="9.456%" r="48.142%" fx="88.2%" fy="9.456%">
      <stop offset="0%" stop-color="#486DA8"/>
      <stop offset="100%" stop-color="#486DA8" stop-opacity="0"/>
    </radialGradient>
    <radialGradient id="bkn_d-i" cx="14.445%" cy="0%" fx="14.445%" fy="0%">
      <stop offset="0%" stop-color="#486DA8"/>
      <stop offset="100%" stop-color="#486DA8" stop-opacity="0"/>
    </radialGradient>
    <linearGradient id="bkn_d-j" x1="50%" x2="50%" y1="0%" y2="122.366%">
      <stop offset="0%" stop-color="#A4C5F4"/>
      <stop offset="100%" stop-color="#A7C7F2"/>
    </linearGradient>
  </defs>
  <g fill="none" fill-rule="evenodd">
    <circle cx="16" cy="10" r="4" fill="url(#bkn_d-a)"/>
    <path stroke="#FFB300" stroke-linecap="round" stroke-linejoin="round" stroke-width="1.5" d="M14.8712868,2.84874961 L14.8712868,4.34874961" transform="rotate(-10 14.871 3.599)"/>
    <path stroke="#FFB300" stroke-linecap="round" stroke-linejoin="round" stroke-width="1.5" d="M17.1287132,15.6512504 L17.1287132,17.1512504" transform="rotate(-10 17.129 16.401)"/>
    <path stroke="#FFB300" stroke-linecap="round" stroke-linejoin="round" stroke-width="1.5" d="M19.7282468,3.92551171 L19.7282468,5.42551171" transform="rotate(35 19.728 4.676)"/>
    <path stroke="#FFB300" stroke-linecap="round" stroke-linejoin="round" stroke-width="1.5" d="M12.2717532,14.5744883 L12.2717532,16.0744883" transform="rotate(35 12.272 15.324)"/>
    <path stroke="#FFB300" stroke-linecap="round" stroke-linejoin="round" stroke-width="1.5" d="M10.6755117,5.52175316 L10.6755117,7.02175316" transform="rotate(-55 10.676 6.272)"/>
    <path stroke="#FFB300" stroke-linecap="round" stroke-linejoin="round" stroke-width="1.5" d="M21.3244883,12.9782468 L21.3244883,14.4782468" transform="rotate(-55 21.324 13.728)"/>
    <path stroke="#FFB300" stroke-linecap="round" stroke-linejoin="round" stroke-width="1.5" d="M22.4012504,8.12128685 L22.4012504,9.62128685" transform="rotate(80 22.401 8.871)"/>
    <path stroke="#FFB300" stroke-linecap="round" stroke-linejoin="round" stroke-width="1.5" d="M9.59874961,10.3787132 L9.59874961,11.8787132" transform="rotate(80 9.599 11.129)"/>
    <g opacity=".5">
      <use fill="url(#bkn_d-b)" xlink:href="#bkn_d-c"/>
      <use fill="url(#bkn_d-d)" xlink:href="#bkn_d-c"/>
    </g>
    <circle cx="6" cy="15" r="4" fill="url(#bkn_d-e)" opacity=".2"/>
    <circle cx="16.5" cy="16.5" r="2.5" fill="url(#bkn_d-f)" opacity=".2"/>
    <path fill="url(#bkn_d-g)" d="M6,19 C3.790861,19 2,17.209139 2,15 C2,12.790861 3.790861,11 6,11 C6.41665567,11 6.81843235,11.0637045 7.19612127,11.1819049 C7.75960062,9.33975064 9.47334255,8 11.5,8 C13.9852814,8 16,10.0147186 16,12.5 C16,12.7345695 15.9820524,12.9649471 15.9474555,13.1898344 C16.2749642,13.0671106 16.6296448,13 17,13 C18.6568542,13 20,14.3431458 20,16 C20,17.6568542 18.6568542,19 17,19 L6,19 Z"/>
    <circle cx="6" cy="15" r="4" fill="url(#bkn_d-h)" opacity=".344"/>
    <circle cx="17" cy="16" r="3" fill="url(#bkn_d-i)" opacity=".2"/>
    <circle cx="11.5" cy="12.5" r="4.5" fill="url(#bkn_d-j)"/>
  </g>
</svg>
