<svg xmlns="http://www.w3.org/2000/svg" width="24" height="24" viewBox="0 0 24 24">
  <defs>
    <radialGradient id="ovc-a" cx="88.2%" cy="11.315%" fx="88.2%" fy="11.315%">
      <stop offset="0%" stop-color="#9699C7"/>
      <stop offset="100%" stop-color="#9499C9" stop-opacity="0"/>
    </radialGradient>
    <radialGradient id="ovc-b" cx="8.171%" cy="-6.535%" r="63.588%" fx="8.171%" fy="-6.535%">
      <stop offset="0%" stop-color="#9699C7"/>
      <stop offset="100%" stop-color="#9499C9" stop-opacity="0"/>
    </radialGradient>
    <linearGradient id="ovc-c" x1="50%" x2="50%" y1="0%" y2="100%">
      <stop offset="0%" stop-color="#A4C5F4"/>
      <stop offset="100%" stop-color="#A7C7F2"/>
    </linearGradient>
    <radialGradient id="ovc-d" cx="88.2%" cy="9.456%" r="48.142%" fx="88.2%" fy="9.456%">
      <stop offset="0%" stop-color="#486DA8"/>
      <stop offset="100%" stop-color="#486DA8" stop-opacity="0"/>
    </radialGradient>
    <radialGradient id="ovc-e" cx="14.445%" cy="0%" fx="14.445%" fy="0%">
      <stop offset="0%" stop-color="#486DA8"/>
      <stop offset="100%" stop-color="#486DA8" stop-opacity="0"/>
    </radialGradient>
    <linearGradient id="ovc-f" x1="50%" x2="50%" y1="0%" y2="122.366%">
      <stop offset="0%" stop-color="#A4C5F4"/>
      <stop offset="100%" stop-color="#A7C7F2"/>
    </linearGradient>
  </defs>
  <g fill="none" fill-rule="evenodd">
    <path fill="#73A5E6" d="M9,14 C7.34314575,14 6,12.6568542 6,11 C6,9.34314575 7.34314575,8 9,8 C9.01033442,8 9.02065664,8.00005225 9.0309664,8.00015651 C9.01052837,7.83630918 9,7.66938411 9,7.5 C9,5.290861 10.790861,3.5 13,3.5 C14.7500912,3.5 16.2376757,4.62392449 16.780334,6.18935387 C17.1648543,6.06638317 17.5746748,6 18,6 C20.209139,6 22,7.790861 22,10 C22,12.209139 20.209139,14 18,14 C17.6547004,14 17.3196199,13.956247 17,13.8739825 L17,14 L9,14 Z" opacity=".32" transform="matrix(-1 0 0 1 28 0)"/>
    <circle cx="6" cy="15" r="4" fill="url(#ovc-a)" opacity=".2"/>
    <circle cx="16.5" cy="16.5" r="2.5" fill="url(#ovc-b)" opacity=".2"/>
    <path fill="url(#ovc-c)" d="M6,19 C3.790861,19 2,17.209139 2,15 C2,12.790861 3.790861,11 6,11 C6.41665567,11 6.81843235,11.0637045 7.19612127,11.1819049 C7.75960062,9.33975064 9.47334255,8 11.5,8 C13.9852814,8 16,10.0147186 16,12.5 C16,12.7345695 15.9820524,12.9649471 15.9474555,13.1898344 C16.2749642,13.0671106 16.6296448,13 17,13 C18.6568542,13 20,14.3431458 20,16 C20,17.6568542 18.6568542,19 17,19 L6,19 Z"/>
    <circle cx="6" cy="15" r="4" fill="url(#ovc-d)" opacity=".344"/>
    <circle cx="17" cy="16" r="3" fill="url(#ovc-e)" opacity=".2"/>
    <circle cx="11.5" cy="12.5" r="4.5" fill="url(#ovc-f)"/>
  </g>
</svg>
